# xmcd
#
# Track frame offsets:
#	150
#	10673
#	21891
#	29779
#	38153
#	49009
#	59348
#	68533
#	81746
#	91662
#
# Disc length: 1351 seconds
#
# Revision: 1
# Processed by: cddbd v1.5.2PL0 Copyright (c) Steve Scherf et al.
# Submitted via: audiograbber 1.83.01
#
DISCID=7a05450a
DTITLE=Porter Wagoner - Today
DYEAR=1979
DGENRE=Country
TTITLE0=I'm Gonna Feed 'Em Now
TTITLE1=Ole Slew Foot
TTITLE2=I'm Gonna Act Right
TTITLE3=Tennessee Saturday Night
TTITLE4=High Country
TTITLE5=Banks Of The Ohio
TTITLE6=I Couldn't Care Less
TTITLE7=I Guess I'm Crazy
TTITLE8=Your Old Love Letters
TTITLE9=All I Need
EXTD=
EXTT0=
EXTT1=
EXTT2=
EXTT3=
EXTT4=
EXTT5=
EXTT6=
EXTT7=
EXTT8=
EXTT9=
PLAYORDER=
